<!DOCTYPE svg PUBLIC "-//W3C//DTD SVG 1.1//EN" "http://www.w3.org/Graphics/SVG/1.1/DTD/svg11.dtd">
<!-- Uploaded to: SVG Repo, www.svgrepo.com, Transformed by: SVG Repo Mixer Tools -->
<svg width="64px" height="64px" viewBox="0 0 32 32" xmlns="http://www.w3.org/2000/svg" fill="#000000" stroke="#000000" stroke-width="0.00032">
<g id="SVGRepo_bgCarrier" stroke-width="0"/>
<g id="SVGRepo_tracerCarrier" stroke-linecap="round" stroke-linejoin="round"/>
<g id="SVGRepo_iconCarrier"> <defs> <style>.cls-1{fill:none;}.cls-2{fill:#000000;}.cls-3{fill:#ffffff;}</style> </defs> <title/> <g id="bag"> <rect class="cls-1" height="32" id="wrapper" width="32"/> <path class="cls-2" d="M28.16,28H3.84a2,2,0,0,1-2-2V10.2a2,2,0,0,1,2-2H28.16a2,2,0,0,1,2,2V26A2,2,0,0,1,28.16,28ZM2.84,26h0Zm1,0H28.16V10.2H3.84Z"/> <rect class="cls-3" height="26.33" rx="1" ry="1" transform="translate(28.6 -3.4) rotate(90)" width="6.8" x="12.6" y="-0.56"/> <path class="cls-2" d="M28.16,17H3.84a2,2,0,0,1-2-2V10.2a2,2,0,0,1,2-2H28.16a2,2,0,0,1,2,2V15A2,2,0,0,1,28.16,17ZM2.84,15h0Zm1,0H28.16V10.2H3.84Z"/> <rect class="cls-3" height="4.77" rx="1" ry="1" transform="translate(32) rotate(90)" width="4.19" x="13.91" y="13.62"/> <path class="cls-2" d="M17.38,19.09H14.62a2,2,0,0,1-2-2V14.91a2,2,0,0,1,2-2h2.76a2,2,0,0,1,2,2v2.18A2,2,0,0,1,17.38,19.09Zm-3.76-2h0Zm1,0h2.76V14.91H14.62Z"/> <path class="cls-2" d="M23.62,10.2H8.38V6.32a3,3,0,0,1,3-3h9.24a3,3,0,0,1,3,3Zm-13.24-2H21.62V6.32a1,1,0,0,0-1-1H11.38a1,1,0,0,0-1,1Z"/> </g> </g>
</svg>