<!DOCTYPE svg PUBLIC "-//W3C//DTD SVG 1.1//EN" "http://www.w3.org/Graphics/SVG/1.1/DTD/svg11.dtd">
<!-- Uploaded to: SVG Repo, www.svgrepo.com, Transformed by: SVG Repo Mixer Tools -->
<svg height="800px" width="800px" version="1.1" id="_x32_" xmlns="http://www.w3.org/2000/svg" xmlns:xlink="http://www.w3.org/1999/xlink" viewBox="0 0 512 512" xml:space="preserve" fill="#ffffff" stroke="#ffffff">
<g id="SVGRepo_bgCarrier" stroke-width="0"/>
<g id="SVGRepo_tracerCarrier" stroke-linecap="round" stroke-linejoin="round"/>
<g id="SVGRepo_iconCarrier"> <style type="text/css"> .st0{fill:#ffffff;} </style> <g> <path class="st0" d="M373.324,0.003L0,373.321l138.676,138.676L512,138.68L373.324,0.003z M42.668,373.321l43.942-43.95 l49.436,49.437l18.671-18.664l-49.437-49.437l37.38-37.379l28.482,28.475l18.664-18.664l-28.475-28.482l37.328-37.328 l49.437,49.437l18.664-18.664l-49.437-49.437l37.394-37.394l28.475,28.482l18.664-18.664l-28.475-28.482l37.328-37.336 l49.437,49.436l18.672-18.664l-49.437-49.437l43.942-43.942l96.008,96.015L138.676,469.337L42.668,373.321z"/> </g> </g>
</svg>